<?xml version="1.0" encoding="UTF-8"?><svg id="uuid-554ee0d3-0f9e-45ce-8d2a-674aaff0ac14" xmlns="http://www.w3.org/2000/svg" viewBox="0 0 594.46 165.14"><defs><style>.uuid-e36234ac-b853-4dc4-826a-8e8c0bd95959{fill:#336aea;}.uuid-b38a7d76-f6e1-4a90-a5dd-00963a42cebf{fill:#092362;}</style></defs><polygon class="uuid-b38a7d76-f6e1-4a90-a5dd-00963a42cebf" points="283.74 32.19 259.72 32.19 293.34 115.92 314.46 115.92 348.08 32.19 324.55 32.19 303.98 88.58 283.74 32.19"/><polygon class="uuid-b38a7d76-f6e1-4a90-a5dd-00963a42cebf" points="395.31 149.18 442.21 32.19 418.52 32.19 396.87 87.62 378.02 32.19 353.85 32.19 386.49 114.22 372.91 149 395.32 149.18 395.31 149.18"/><polygon class="uuid-b38a7d76-f6e1-4a90-a5dd-00963a42cebf" points="494.92 50.1 494.92 32.2 482.59 32.2 482.59 11.42 459.86 11.42 459.86 32.2 448.5 32.2 448.5 50.1 459.86 50.1 459.86 115.94 482.59 115.94 482.59 50.1 494.92 50.1"/><polygon class="uuid-b38a7d76-f6e1-4a90-a5dd-00963a42cebf" points="543.74 149.18 590.65 32.19 566.95 32.19 545.3 87.62 526.45 32.19 502.28 32.19 534.92 114.22 521.34 149 543.75 149.18 543.74 149.18"/><path class="uuid-e36234ac-b853-4dc4-826a-8e8c0bd95959" d="m49.5,29.85c-24.42,0-44.29,19.83-44.29,44.22s19.88,44.22,44.29,44.22,44.29-19.84,44.29-44.22-19.88-44.22-44.29-44.22Zm0,67.71c-12.97,0-23.53-10.54-23.53-23.49s10.56-23.49,23.53-23.49,23.53,10.54,23.53,23.49-10.56,23.49-23.53,23.49Z"/><path class="uuid-e36234ac-b853-4dc4-826a-8e8c0bd95959" d="m103.9,18.87c0,8.12-6.6,14.72-14.74,14.72s-14.74-6.59-14.74-14.72,6.6-14.72,14.74-14.72,14.74,6.59,14.74,14.72Z"/><path class="uuid-e36234ac-b853-4dc4-826a-8e8c0bd95959" d="m89.78,113.28c.4,2.28.65,4.62.65,7.02,0,22.52-18.35,40.86-40.93,40.86s-39.31-16.79-40.8-37.96h20.9c3.06,12.57,13.59,21.87,26.13,21.87,14.92,0,27.05-13.15,27.05-29.34,0-.83-.06-1.64-.11-2.46h7.11Z"/><path class="uuid-b38a7d76-f6e1-4a90-a5dd-00963a42cebf" d="m229.73,32.2v6.62c-6.66-6.05-16.91-8.97-26.09-8.97-24.42,0-42.98,19.83-42.98,44.22s18.56,44.22,42.98,44.22c9.18,0,19.43-2.65,26.09-8.97v6.62h21.04V32.2h-21.04Zm-24.78,65.36c-12.97,0-23.53-10.54-23.53-23.49s10.56-23.49,23.53-23.49,23.53,10.54,23.53,23.49-10.56,23.49-23.53,23.49Z"/><path class="uuid-b38a7d76-f6e1-4a90-a5dd-00963a42cebf" d="m132.88,38.82v-6.62h-21.04v83.74h21.04v-41.87c0-12.95,11.67-23.49,24.64-23.49v-20.73c-9.11,0-18.51,2.04-24.64,8.97Z"/></svg>