<?xml version="1.0" encoding="UTF-8"?>
<svg id="Layer_1" xmlns="http://www.w3.org/2000/svg" version="1.1" viewBox="0 0 598.8 168.8">
  <!-- Generator: Adobe Illustrator 29.4.0, SVG Export Plug-In . SVG Version: 2.1.0 Build 152)  -->
  <defs>
    <style>
      .st0 {
        fill: #fff;
      }
    </style>
  </defs>
  <g>
    <path class="st0" d="M50.3,31.6c-24.4,0-44.3,19.8-44.3,44.2s19.9,44.2,44.3,44.2,44.3-19.8,44.3-44.2-19.9-44.2-44.3-44.2ZM50.3,99.3c-13,0-23.5-10.5-23.5-23.5s10.6-23.5,23.5-23.5,23.5,10.5,23.5,23.5-10.6,23.5-23.5,23.5Z"/>
    <path class="st0" d="M104.7,20.6c0,8.1-6.6,14.7-14.7,14.7s-14.7-6.6-14.7-14.7,6.6-14.7,14.7-14.7,14.7,6.6,14.7,14.7Z"/>
    <path class="st0" d="M90.6,115c.4,2.3.7,4.6.7,7,0,22.5-18.3,40.9-40.9,40.9s-39.3-16.8-40.8-38h20.9c3.1,12.6,13.6,21.9,26.1,21.9s27-13.1,27-29.3,0-1.6-.1-2.5h7.1Z"/>
  </g>
  <g>
    <polygon class="st0" points="284.6 33.9 260.5 33.9 294.2 117.6 315.3 117.6 348.9 33.9 325.4 33.9 304.8 90.3 284.6 33.9"/>
    <polygon class="st0" points="396.1 150.9 443 33.9 419.3 33.9 397.7 89.3 378.8 33.9 354.7 33.9 387.3 115.9 373.7 150.7 396.1 150.9 396.1 150.9"/>
    <polygon class="st0" points="495.7 51.8 495.7 33.9 483.4 33.9 483.4 13.1 460.7 13.1 460.7 33.9 449.3 33.9 449.3 51.8 460.7 51.8 460.7 117.7 483.4 117.7 483.4 51.8 495.7 51.8"/>
    <polygon class="st0" points="544.6 150.9 591.5 33.9 567.8 33.9 546.1 89.3 527.3 33.9 503.1 33.9 535.7 115.9 522.2 150.7 544.6 150.9 544.6 150.9"/>
    <path class="st0" d="M230.5,33.9v6.6c-6.7-6-16.9-9-26.1-9-24.4,0-43,19.8-43,44.2s18.6,44.2,43,44.2,19.4-2.7,26.1-9v6.6h21V33.9h-21,0ZM205.8,99.3c-13,0-23.5-10.5-23.5-23.5s10.6-23.5,23.5-23.5,23.5,10.5,23.5,23.5-10.6,23.5-23.5,23.5Z"/>
    <path class="st0" d="M133.7,40.5v-6.6h-21v83.7h21v-41.9c0-13,11.7-23.5,24.6-23.5v-20.7c-9.1,0-18.5,2-24.6,9h0Z"/>
  </g>
</svg>